<?xml version="1.0" encoding="utf-8"?>
<!-- Generator: Adobe Illustrator 16.0.4, SVG Export Plug-In . SVG Version: 6.00 Build 0)  -->
<!DOCTYPE svg PUBLIC "-//W3C//DTD SVG 1.1//EN" "http://www.w3.org/Graphics/SVG/1.1/DTD/svg11.dtd">
<svg version="1.1" id="Layer_1" xmlns="http://www.w3.org/2000/svg" xmlns:xlink="http://www.w3.org/1999/xlink" x="0px" y="0px"
	 width="200px" height="200px" viewBox="0 0 200 200" enable-background="new 0 0 200 200" xml:space="preserve">
<path fill="#FF6CA8" d="M60.272,52.465c-0.207,0.752-0.319,1.28-0.366,1.484C59.979,53.42,60.099,52.931,60.272,52.465z"/>
<path fill="#FF6CA8" d="M151.154,127.952c-0.378,0.224-0.799,0.414-1.257,0.562C150.083,128.436,150.521,128.249,151.154,127.952z"
	/>
<path fill="#FEF4F3" d="M169.093,95.415c-0.494,0.596-1.021,1.133-1.586,1.62c-5.95,5.133-15.774,4.353-27.064-0.588l-0.006-0.004
	c-8.204-3.591-17.181-9.386-26.013-16.706c-8.832-7.319-16.191-15.066-21.244-22.461l-0.005-0.005
	c-6.191-9.071-8.922-17.6-6.66-24.165c0.514-1.502,1.3-2.904,2.357-4.18c5.408-6.526,16.115-7.472,28.434-3.65
	c-3.283,7.342,0.769,18.297,13.663,28.985c16.675,13.821,28.045,14.022,35.015,9.998C173.255,76.583,174.906,88.401,169.093,95.415z
	"/>
<path fill="#D2B0C2" d="M169.093,95.415c-0.494,0.596-1.021,1.133-1.586,1.62c-5.95,5.133-15.774,4.353-27.064-0.588l-0.006-0.004
	c-3.167-1.386-6.437-3.102-9.778-5.099c10.811,5.739,20.486,7.261,26.789,2.633c0.603-0.444,1.173-0.937,1.715-1.493
	c5.506-5.674,5.684-15.397,1.528-26.274c1.985-0.376,3.748-1.058,5.292-1.952C173.255,76.583,174.906,88.401,169.093,95.415z"/>
<path fill="#FF6CA8" d="M170.678,60.26c-1.257,1.519-2.82,2.913-4.695,3.999c-6.97,4.025-18.34,3.823-35.015-9.998
	c-12.895-10.688-16.946-21.643-13.663-28.985c0.441-0.985,1.01-1.905,1.713-2.754c4.122-4.971,12.547-8.089,22.788-1.2
	c2.243,1.509,3.914,2.766,5.198,4.389c0.026-0.436,0.068-0.867,0.123-1.289c1.828-14.47,15.429-19.302,15.429-19.302
	c-4.385,17.092,28.869,29.643,8.39,54.805C170.862,60.038,170.769,60.152,170.678,60.26z"/>
<path fill="#FEF4F3" d="M170.678,60.26c-1.257,1.519-2.82,2.913-4.695,3.999c-6.97,4.025-18.34,3.823-35.015-9.998
	c-12.895-10.688-16.946-21.643-13.663-28.985c0.441-0.985,1.01-1.905,1.713-2.754c4.122-4.971,12.547-8.089,22.788-1.2
	c2.243,1.509,3.914,2.766,5.198,4.389c0.026-0.436,0.068-0.867,0.123-1.289c1.828-14.47,15.429-19.302,15.429-19.302
	c-4.385,17.092,28.869,29.643,8.39,54.805C170.862,60.038,170.769,60.152,170.678,60.26z"/>
<path fill="#D2B0C2" d="M170.678,60.26c-1.257,1.519-2.82,2.913-4.695,3.999c-6.97,4.025-18.34,3.823-35.015-9.998
	c-5.496-4.556-9.38-9.157-11.777-13.508c1.945,2.322,4.307,4.655,7.101,6.971c16.368,13.567,27.745,13.501,34.817,9.267
	c1.909-1.139,3.506-2.588,4.799-4.146c0.094-0.115,0.189-0.229,0.278-0.349c7.974-9.792,8.222-17.578,5.699-24.422
	c5.698,8.784,9.877,18.555-0.939,31.851C170.862,60.038,170.769,60.152,170.678,60.26z"/>
<path fill="#FBE290" d="M151.972,127.553l-4.975,6.002c-1.492,1.799-4.057,2.578-7.439,2.446
	c-10.952-0.447-30.476-10.514-49.788-26.52C70.458,93.475,56.943,76.16,54.472,65.48c-0.76-3.299-0.469-5.964,1.023-7.765
	l5.004-6.037c-0.082,0.256-0.148,0.498-0.205,0.725c-0.015,0.017-0.013,0.04-0.021,0.062c-0.173,0.466-0.293,0.956-0.366,1.484
	c-0.01,0.062-0.018,0.096-0.018,0.096c-0.065,0.444-0.087,0.913-0.086,1.402c0.039,2.905,1.23,6.554,3.412,10.697
	c5.438,10.358,17.063,23.792,32.294,36.415c15.231,12.623,30.587,21.554,41.775,24.976c4.476,1.374,8.282,1.867,11.145,1.366
	c0.48-0.089,0.936-0.198,1.361-0.344c0,0,0.033-0.013,0.108-0.042c0.458-0.148,0.879-0.338,1.257-0.562c0,0,0,0,0.005-0.006
	C151.404,127.834,151.675,127.704,151.972,127.553z"/>
<path fill="#FBDA77" d="M151.972,127.553l-4.975,6.002c-1.492,1.799-4.057,2.578-7.439,2.446c-3.049-0.121-6.757-0.99-10.948-2.524
	c3.146,0.038,5.538-0.752,6.954-2.461l2.655-3.203c4.073,1.163,7.546,1.553,10.208,1.087c0.48-0.089,0.936-0.198,1.361-0.344
	c0,0,0.033-0.013,0.108-0.042c0.458-0.148,0.879-0.338,1.257-0.562c0,0,0,0,0.005-0.006
	C151.404,127.834,151.675,127.704,151.972,127.553z"/>
<path fill="#FFDE9C" d="M55.928,69.826c-0.661-1.544-1.141-2.999-1.456-4.345c-0.76-3.299-0.469-5.964,1.023-7.765l5.004-6.037
	c-0.082,0.256-0.148,0.498-0.205,0.725c-0.015,0.017-0.013,0.04-0.021,0.062c-0.173,0.466-0.293,0.956-0.366,1.484
	c-0.01,0.062-0.018,0.096-0.018,0.096c-0.065,0.444-0.087,0.913-0.086,1.402c0.011,0.721,0.095,1.479,0.241,2.281l-3.203,3.866
	c-1.492,1.799-1.781,4.464-1.022,7.764C55.854,69.51,55.892,69.674,55.928,69.826z"/>
<path fill="#FF6CA8" d="M147.004,25.711c2.825,3.54,4.479,7.766,11.292,12.02"/>
<path fill="#FEF4F3" d="M151.972,127.553c-0.296,0.15-0.567,0.281-0.812,0.393c-0.005,0.006-0.005,0.006-0.005,0.006
	c-0.632,0.297-1.071,0.483-1.257,0.562c-0.076,0.029-0.108,0.042-0.108,0.042c-0.425,0.146-0.88,0.255-1.361,0.344
	c-2.863,0.501-6.668,0.008-11.145-1.366c-11.188-3.422-26.544-12.354-41.775-24.976c-15.23-12.623-26.855-26.057-32.294-36.415
	c-2.182-4.144-3.373-7.792-3.412-10.697c-0.001-0.489,0.021-0.958,0.086-1.402c0,0,0.008-0.034,0.018-0.096
	c0.047-0.204,0.16-0.731,0.366-1.484c0.009-0.022,0.007-0.045,0.021-0.062c0.057-0.227,0.124-0.468,0.205-0.725
	c1.831-6.13,8.321-21.854,26.015-18.573c-2.262,6.565,0.469,15.094,6.66,24.165l0.005,0.005
	c5.053,7.395,12.413,15.142,21.244,22.461c8.832,7.32,17.809,13.115,26.013,16.706l0.006,0.004
	c11.291,4.94,21.114,5.721,27.064,0.588C175.175,114.114,158.201,124.438,151.972,127.553z"/>
<path fill="#FEF4F3" d="M151.972,127.553c-0.296,0.15-0.567,0.281-0.812,0.393c-0.005,0.006-0.005,0.006-0.005,0.006
	c-0.632,0.297-1.071,0.483-1.257,0.562c-0.076,0.029-0.108,0.042-0.108,0.042c-0.425,0.146-0.88,0.255-1.361,0.344
	c-2.863,0.501-6.668,0.008-11.145-1.366c-11.188-3.422-26.544-12.354-41.775-24.976c-15.23-12.623-26.855-26.057-32.294-36.415
	c-2.182-4.144-3.373-7.792-3.412-10.697c-0.001-0.489,0.021-0.958,0.086-1.402c0,0,0.008-0.034,0.018-0.096
	c0.047-0.204,0.16-0.731,0.366-1.484c0.009-0.022,0.007-0.045,0.021-0.062c0.057-0.227,0.124-0.468,0.205-0.725
	c1.831-6.13,8.321-21.854,26.015-18.573c-2.262,6.565,0.469,15.094,6.66,24.165l0.005,0.005
	c5.053,7.395,12.413,15.142,21.244,22.461c8.832,7.32,17.809,13.115,26.013,16.706l0.006,0.004c0.371,0.166,0.746,0.325,1.121,0.474
	c10.813,4.512,20.195,5.077,25.944,0.114c1.073,2.393,1.663,4.658,1.863,6.794C170.625,116.873,157.33,124.875,151.972,127.553z"/>
<path fill="#D2B0C2" d="M151.972,127.553c-0.296,0.15-0.567,0.281-0.812,0.393c-0.005,0.006-0.005,0.006-0.005,0.006
	c-0.632,0.297-1.071,0.483-1.257,0.562c-0.076,0.029-0.108,0.042-0.108,0.042c-0.425,0.146-0.88,0.255-1.361,0.344
	c-2.863,0.501-6.668,0.008-11.145-1.366c-11.188-3.422-26.544-12.354-41.775-24.976c-0.807-0.669-1.607-1.344-2.393-2.015
	c14.422,11.577,28.758,19.753,39.353,22.999c4.477,1.375,8.282,1.869,11.145,1.368c0.48-0.09,0.937-0.199,1.361-0.345
	c0,0,0.033-0.014,0.108-0.044c0.187-0.078,0.624-0.264,1.257-0.561c0,0,0,0,0.006-0.007c0.246-0.112,0.515-0.243,0.812-0.392
	c0.759-0.379,1.678-0.866,2.691-1.46c8.663-5.067,7.813-17.764-1.391-21.762c-0.06-0.026-0.119-0.052-0.178-0.079l-0.005-0.005
	c-2.183-0.956-4.426-2.072-6.71-3.335c9.125,3.804,17.232,4.804,22.987,2.041c0.282-0.132,0.562-0.275,0.83-0.438
	c0.234-0.122,0.454-0.254,0.667-0.402c0.181-0.105,0.352-0.226,0.518-0.354c0.135-0.09,0.266-0.186,0.389-0.286
	c0.188-0.14,0.374-0.29,0.553-0.446c0.436,0.97,0.79,1.915,1.07,2.838c0.057,0.188,0.114,0.378,0.164,0.562
	c0.06,0.209,0.118,0.421,0.165,0.622c0.044,0.179,0.083,0.354,0.116,0.523c0.047,0.212,0.089,0.418,0.124,0.621
	c0.055,0.278,0.091,0.553,0.133,0.82c0.037,0.275,0.067,0.544,0.092,0.808C170.625,116.873,157.33,124.875,151.972,127.553z"/>
<path fill="none" stroke="#272727" stroke-miterlimit="10" d="M60.272,52.465c-0.207,0.752-0.319,1.28-0.366,1.484
	C59.979,53.42,60.099,52.931,60.272,52.465z"/>
<path fill="none" stroke="#272727" stroke-miterlimit="10" d="M151.154,127.952c-0.378,0.224-0.799,0.414-1.257,0.562
	C150.083,128.436,150.521,128.249,151.154,127.952z"/>
<g>
	<path fill="#273351" d="M167.013,63.651c2.106,3.554,3.889,7.327,5.142,11.311c1.202,3.984,1.979,8.207,1.499,12.513
		c-0.271,2.136-0.875,4.276-1.936,6.208c-1.073,1.913-2.509,3.671-4.349,4.905c-1.808,1.271-3.909,2.05-6.016,2.391
		c-2.114,0.342-4.235,0.261-6.277-0.07c-0.241-0.039-0.403-0.266-0.364-0.504c0.034-0.212,0.213-0.363,0.419-0.371h0.006
		c2.004-0.068,3.978-0.29,5.839-0.801c1.858-0.516,3.586-1.33,5.048-2.474c0.729-0.578,1.403-1.212,1.997-1.926
		c0.557-0.744,1.115-1.487,1.523-2.325c0.868-1.64,1.414-3.457,1.674-5.34c0.496-3.788-0.132-7.749-1.322-11.494
		c-1.234-3.749-2.944-7.359-4.943-10.805l-0.003-0.007c-0.332-0.57-0.137-1.303,0.435-1.635
		C165.952,62.896,166.679,63.087,167.013,63.651z"/>
</g>
<g>
	<path fill="#273351" d="M89.08,51.21c-1.196-1.925-2.235-3.969-3.019-6.137c-0.791-2.165-1.333-4.46-1.428-6.841
		c-0.03-1.188,0.035-2.394,0.251-3.586c0.22-1.192,0.597-2.361,1.109-3.476c1.023-2.237,2.676-4.135,4.632-5.573
		c1.962-1.442,4.221-2.377,6.51-2.952c2.294-0.582,4.643-0.793,6.961-0.798c2.323,0,4.626,0.228,6.899,0.598l1.694,0.318
		c0.566,0.104,1.116,0.27,1.673,0.403c1.118,0.259,2.208,0.616,3.297,0.961c0.631,0.2,0.982,0.875,0.781,1.507
		c-0.195,0.615-0.84,0.964-1.456,0.797l-0.038-0.009c-2.122-0.575-4.246-1.108-6.389-1.518c-2.146-0.389-4.312-0.642-6.474-0.684
		c-4.298-0.063-8.683,0.872-11.99,3.355c-1.649,1.221-2.995,2.833-3.907,4.645c-0.896,1.827-1.311,3.888-1.363,5.989
		c-0.034,2.109,0.291,4.255,0.813,6.375c0.553,2.112,1.295,4.2,2.136,6.268c0.083,0.199-0.012,0.428-0.211,0.512
		C89.384,51.44,89.18,51.369,89.08,51.21z"/>
</g>
<g>
	<path fill="#273351" d="M129.788,53.93c-2.244-1.789-4.401-3.708-6.37-5.833c-1.947-2.14-3.759-4.445-5.194-7.015
		c-1.424-2.562-2.597-5.35-3-8.373c-0.089-0.755-0.176-1.512-0.146-2.283c-0.031-0.768,0.082-1.536,0.171-2.306
		c0.28-1.52,0.726-3.046,1.5-4.414c1.548-2.764,3.985-4.824,6.769-6.185c1.409-0.646,2.911-1.069,4.442-1.305
		c1.533-0.167,3.086-0.204,4.599,0.027c3.045,0.386,5.884,1.58,8.427,3.101c1.281,0.787,2.468,1.576,3.644,2.477
		c1.177,0.888,2.335,1.921,3.292,3.16l0.002,0.001l-2.09,0.659c0.188-2.404,0.716-4.717,1.531-6.966
		c0.836-2.24,2.066-4.315,3.505-6.203c1.448-1.894,3.196-3.528,5.083-4.946c1.913-1.421,3.904-2.595,6.208-3.511l0.003-0.001
		c0.602-0.224,1.271,0.082,1.497,0.684c0.084,0.226,0.093,0.462,0.04,0.68l-0.008,0.034c-0.789,3.255-0.035,6.665,1.507,9.793
		c1.545,3.143,3.658,6.086,5.714,9.112c2.07,3.02,4.142,6.137,5.726,9.593c0.78,1.734,1.406,3.558,1.836,5.445
		c0.408,1.897,0.517,3.858,0.419,5.805c-0.324,3.896-1.722,7.601-3.684,10.835l-1.562,2.363l-1.7,2.215
		c-1.205,1.539-2.635,2.881-4.251,3.979c-1.622,1.09-3.427,1.918-5.31,2.416c-1.885,0.492-3.834,0.668-5.747,0.572
		c-3.843-0.187-7.476-1.428-10.768-3.111c-0.251-0.127-0.351-0.436-0.222-0.687c0.116-0.229,0.382-0.332,0.619-0.25l0.007,0.002
		c3.417,1.162,6.928,2.007,10.414,1.997c1.739-0.007,3.457-0.229,5.101-0.69c1.632-0.49,3.197-1.197,4.593-2.167
		c1.396-0.968,2.651-2.168,3.683-3.516l1.617-2.15l1.439-2.222c1.79-3.024,2.979-6.352,3.234-9.757
		c0.068-1.705-0.056-3.41-0.407-5.092c-0.383-1.676-0.941-3.323-1.661-4.923c-1.462-3.197-3.444-6.201-5.5-9.205
		c-2.054-3.005-4.192-6.047-5.845-9.487c-0.816-1.72-1.468-3.575-1.785-5.526c-0.319-1.95-0.233-3.997,0.262-5.927l1.528,1.396
		l-0.001,0.001c-1.911,0.76-3.874,1.889-5.591,3.179c-1.733,1.305-3.331,2.796-4.637,4.511c-1.302,1.712-2.412,3.575-3.162,5.592
		c-0.229,0.488-0.327,1.022-0.498,1.532c-0.144,0.517-0.341,1.021-0.409,1.56c-0.194,1.061-0.414,2.123-0.477,3.18
		c-0.039,0.647-0.595,1.139-1.241,1.099c-0.332-0.019-0.624-0.176-0.823-0.41l-0.026-0.031l-0.002-0.001
		c-0.812-0.996-1.818-1.855-2.917-2.669c-1.096-0.817-2.294-1.588-3.451-2.273c-2.353-1.345-4.873-2.427-7.498-2.742
		c-1.306-0.199-2.62-0.158-3.915-0.023c-1.285,0.204-2.539,0.562-3.731,1.079c-1.177,0.549-2.277,1.264-3.257,2.119
		c-0.983,0.861-1.839,1.851-2.465,2.96c-0.65,1.108-1.02,2.353-1.277,3.617c-0.077,0.644-0.188,1.286-0.166,1.946
		c-0.043,0.655,0.043,1.314,0.092,1.975c0.265,2.651,1.251,5.251,2.512,7.686c1.297,2.43,2.85,4.758,4.641,6.914
		c1.796,2.149,3.75,4.182,5.798,6.136l0.007,0.005c0.203,0.194,0.211,0.516,0.017,0.718C130.29,54.075,129.991,54.092,129.788,53.93
		z"/>
</g>
<path fill="#FBE290" d="M139.558,136.001c0,0-28.811,21.84-38.795,28.797c-1.74,1.212-4.185,1.862-7.699,1.226
	c-8.335-1.497-21.333-8.582-34.202-19.249c-12.871-10.667-22.246-22.124-25.263-30.037c-1.278-3.334-1.147-5.883-0.225-7.792
	C38.608,98.124,54.472,65.48,54.472,65.48c2.472,10.68,15.987,27.995,35.299,44.001
	C109.082,125.487,128.606,135.554,139.558,136.001z"/>
<path fill="#FAFAFF" d="M60.886,148.424c-0.671-0.537-1.351-1.09-2.025-1.648c-12.871-10.667-22.246-22.124-25.263-30.037
	c-1.278-3.334-1.146-5.885-0.225-7.792C38.608,98.123,54.472,65.48,54.472,65.48c0.451,1.968,1.284,4.161,2.456,6.533
	c-4.125,8.493-15.309,31.508-19.538,40.261c-0.92,1.908-1.053,4.458,0.225,7.792C40.476,127.567,49.039,138.249,60.886,148.424z"/>
<path fill="#FBDA77" d="M139.558,136.001c0,0-28.813,21.838-38.795,28.797c-1.736,1.211-4.185,1.862-7.699,1.226
	c-7.681-1.381-19.31-7.494-31.152-16.792c9.244,6.331,17.786,11.362,23.998,11.542c6.552,0.189,10.927-3.514,12.978-5.003
	c9.178-6.669,9.222-20.263,0.183-27.121c-6.159-4.675-12.606-10.32-18.95-16.728C65.96,97.628,55.591,82.851,51.323,71.95
	c1.904-3.917,3.148-6.47,3.148-6.47c2.472,10.68,15.987,27.995,35.299,44.001C109.082,125.487,128.606,135.554,139.558,136.001z"/>
<path fill="#FEB447" d="M58.261,194.059c-3.602,2.803-15.978-1.564-28.613-12.037c-12.637-10.473-19.035-21.488-17.138-25.882
	c0.052-0.123,21.089-39.402,21.089-39.402c3.017,7.914,12.392,19.37,25.263,30.037c12.87,10.667,25.867,17.752,34.202,19.249
	C93.063,166.024,58.366,193.977,58.261,194.059z"/>
<path fill="#FBE290" d="M93.063,166.024c0,0-3.537,2.846-8.349,6.729c-0.919,0.741-1.89,1.52-2.892,2.325
	c-0.951,0.767-1.927,1.552-2.917,2.356c-0.414,0.326-0.837,0.667-1.256,1c-9.277,7.482-19.331,15.58-19.388,15.625
	c-3.602,2.803-15.978-1.564-28.613-12.037c-3.503-2.903-6.528-5.847-9.032-8.684c-0.683-0.769-1.326-1.535-1.929-2.289
	c-4.315-5.395-6.592-10.206-6.498-13.297c0.015-0.607,0.119-1.15,0.321-1.612c0.004-0.007,0.094-0.176,0.254-0.48
	c2.391-4.488,20.834-38.921,20.834-38.921c3.017,7.914,12.392,19.37,25.263,30.037c5.134,4.255,10.293,7.943,15.171,10.929
	c0.407,0.255,0.813,0.502,1.219,0.747c0.324,0.187,0.628,0.369,0.945,0.55l0.007,0.005c0.651,0.379,1.295,0.739,1.935,1.095
	l0.005,0.006C83.848,163.25,89.009,165.303,93.063,166.024z"/>
<path fill="#FAFAFF" d="M31.299,183.35c-0.55-0.425-1.103-0.874-1.651-1.328c-12.637-10.473-19.037-21.484-17.138-25.882
	c0.049-0.122,21.089-39.402,21.089-39.402c0.559,1.469,1.343,3.073,2.328,4.764c-4.263,7.951-19.994,37.332-20.04,37.437
	C14.075,163.132,19.81,173.331,31.299,183.35z"/>
<path fill="#FBDA77" d="M93.063,166.024c0,0-34.693,27.952-34.802,28.035c-3.602,2.803-15.978-1.564-28.613-12.037
	c-1.187-0.981-2.311-1.965-3.386-2.948c6.296,4.714,11.808,6.959,16.323,8.089c5.077,1.272,10.45,0.041,14.526-3.241
	c0.082-0.067,0.166-0.134,0.249-0.202c8.624-6.946,9.042-19.998,0.795-27.387c-1.928-1.728-3.864-3.559-5.788-5.485
	c-10.476-10.481-18.149-21.319-21.326-29.334c1.561-2.912,2.558-4.776,2.558-4.776c3.017,7.914,12.392,19.37,25.263,30.037
	C71.731,157.442,84.728,164.528,93.063,166.024z"/>
<g>
	<path fill="#273351" d="M58.113,147.678c-12.6-10.443-22.414-22.139-25.61-30.522c-1.291-3.368-1.354-6.302-0.184-8.72
		c5.234-10.824,21.097-43.469,21.097-43.469c0.218-0.447,0.692-0.708,1.188-0.653c0.493,0.056,0.899,0.417,1.011,0.901
		c2.471,10.681,16.499,28.106,34.904,43.362c18.407,15.254,38.133,25.805,49.088,26.25c0.495,0.021,0.921,0.349,1.07,0.823
		c0.148,0.472-0.017,0.986-0.41,1.286c-0.289,0.217-28.944,21.933-38.834,28.824c-2.247,1.565-5.133,2.042-8.58,1.418
		C84.025,165.593,70.712,158.121,58.113,147.678z M54.214,68.692c-3.906,8.042-15.464,31.833-19.783,40.765
		c-0.877,1.812-0.789,4.12,0.263,6.862c3.061,8.03,12.608,19.353,24.914,29.553c12.307,10.199,25.207,17.48,33.663,18.997
		c2.81,0.511,5.105,0.163,6.821-1.034c8.18-5.699,29.296-21.617,36.394-26.98c-11.837-1.919-29.967-11.969-47.465-26.471
		C71.543,95.898,58.313,79.963,54.214,68.692z"/>
</g>
<g>
	<g>
		<path fill="#FFDE9C" d="M26.972,146.353c-0.285,2.597-0.147,5.268,0.003,7.919c0.182,2.655,0.419,5.311,0.738,7.956
			c0.324,2.646,0.701,5.281,1.17,7.891c0.5,2.597,1.006,5.217,2.058,7.583l0.025,0.056c0.092,0.207-0.001,0.45-0.208,0.542
			c-0.18,0.081-0.387,0.021-0.5-0.133c-0.414-0.563-0.88-1.139-1.177-1.766c-0.17-0.307-0.334-0.621-0.491-0.935l-0.413-0.957
			c-0.536-1.287-0.96-2.601-1.315-3.929c-0.721-2.655-1.195-5.358-1.52-8.073c-0.298-2.718-0.465-5.451-0.407-8.193
			c0.079-2.733,0.258-5.514,1.191-8.189c0.08-0.229,0.33-0.348,0.557-0.27c0.196,0.069,0.312,0.263,0.291,0.46L26.972,146.353z"/>
		<path fill="#FFDE9C" d="M37.675,170.025c-2.456,1.407-5.156,2.103-7.822,2.686c-0.148,0.031-0.294,0.062-0.431,0.091
			c-0.594,0.117-1.184,0.227-1.774,0.326c-1.968,0.331-3.942,0.553-5.926,0.707c-0.353,0.021-0.706,0.043-1.071,0.066
			c-0.682-0.769-1.326-1.536-1.93-2.291c0.94-0.044,1.89-0.099,2.834-0.16c1.81-0.113,3.622-0.278,5.424-0.469
			c0.677-0.07,1.347-0.143,2.023-0.224c0.17-0.021,0.335-0.036,0.505-0.057c2.639-0.342,5.287-0.706,7.787-1.467l0.038-0.008
			c0.231-0.073,0.471,0.055,0.543,0.288C37.934,169.711,37.849,169.925,37.675,170.025z"/>
		<path fill="#FFDE9C" d="M36.221,154.49c-2.455,1.417-5.156,2.104-7.827,2.693c-0.392,0.082-0.779,0.156-1.172,0.227
			c-0.743,0.147-1.492,0.266-2.242,0.375c-1.562,0.23-3.141,0.395-4.711,0.514c-2.671,0.183-5.354,0.223-8.045,0.014
			c0.016-0.606,0.12-1.149,0.32-1.613c0.006-0.006,0.096-0.176,0.255-0.479c2.429-0.027,4.873-0.145,7.308-0.301
			c1.61-0.106,3.219-0.246,4.82-0.413c0.71-0.061,1.413-0.138,2.123-0.22c0.334-0.037,0.67-0.074,1.009-0.118
			c2.634-0.346,5.282-0.71,7.776-1.466l0.039-0.009c0.231-0.072,0.477,0.061,0.543,0.288
			C36.487,154.181,36.395,154.39,36.221,154.49z"/>
	</g>
</g>
<g>
	<path fill="#273351" d="M89.021,110.384c-19.064-15.8-33.074-33.322-35.691-44.639c-0.867-3.769-0.442-6.722,1.262-8.777
		l5.004-6.038c0.358-0.432,0.972-0.55,1.465-0.281c0.495,0.27,0.726,0.849,0.556,1.383c-0.074,0.232-0.134,0.447-0.183,0.652
		c-0.013,0.048-0.027,0.097-0.046,0.143c-0.008,0.027-0.017,0.052-0.025,0.074c-0.133,0.358-0.232,0.763-0.294,1.208
		c-0.009,0.059-0.018,0.103-0.025,0.134c-0.046,0.345-0.069,0.738-0.068,1.201c0.035,2.635,1.168,6.151,3.276,10.155
		c5.551,10.568,17.514,24.048,32.005,36.057c14.491,12.01,29.958,21.265,41.37,24.758c4.327,1.328,7.992,1.789,10.6,1.333
		c0.44-0.082,0.819-0.177,1.146-0.287c0.027-0.01,0.062-0.024,0.107-0.041c0.405-0.133,0.734-0.278,1.03-0.447
		c0.053-0.036,0.107-0.066,0.164-0.093c0.232-0.106,0.49-0.229,0.771-0.372c0.495-0.251,1.098-0.116,1.445,0.315
		c0.347,0.434,0.341,1.054-0.013,1.479l-4.975,6.003c-1.705,2.057-4.527,3.021-8.389,2.869
		C127.904,136.7,108.086,126.185,89.021,110.384z M58.636,55.761l-2.239,2.703c-1.213,1.462-1.476,3.735-0.782,6.754
		c2.471,10.678,16.499,28.104,34.904,43.359c18.407,15.254,38.133,25.805,49.088,26.25c3.092,0.123,5.275-0.558,6.488-2.021
		l2.24-2.703c-2.983,0.446-6.811-0.042-11.396-1.448c-11.693-3.578-27.462-12.996-42.179-25.194
		C80.043,91.264,67.861,77.516,62.175,66.69C59.938,62.441,58.749,58.766,58.636,55.761z"/>
</g>
<g>
	<g>
		<path fill="#FEB447" d="M60.606,151.562c-0.283,2.598-0.146,5.267,0.004,7.919c0.182,2.655,0.419,5.312,0.737,7.957
			c0.325,2.645,0.704,5.281,1.172,7.891c0.5,2.597,1.005,5.217,2.057,7.583l0.025,0.056c0.092,0.208,0,0.451-0.21,0.543
			c-0.179,0.08-0.386,0.02-0.499-0.134c-0.413-0.563-0.879-1.139-1.178-1.766c-0.169-0.307-0.334-0.619-0.491-0.934l-0.412-0.957
			c-0.536-1.286-0.961-2.601-1.316-3.93c-0.721-2.656-1.194-5.357-1.52-8.073c-0.299-2.717-0.465-5.45-0.404-8.192
			c0.077-2.733,0.256-5.514,1.189-8.191c0.08-0.227,0.33-0.348,0.558-0.268c0.195,0.069,0.312,0.262,0.29,0.46L60.606,151.562z"/>
		<path fill="#FEB447" d="M78.971,178.122c-0.414,0.328-0.837,0.667-1.256,1l-0.369-0.854c-0.187-0.46-0.37-0.926-0.534-1.388
			c-0.25-0.715-0.474-1.428-0.673-2.142c-0.04-0.136-0.07-0.271-0.11-0.407c-0.721-2.648-1.196-5.358-1.516-8.071
			c-0.175-1.566-0.301-3.144-0.366-4.719c-0.037-0.763-0.059-1.521-0.051-2.277c-0.011-0.293-0.005-0.583,0.002-0.873
			c0.406,0.256,0.812,0.501,1.218,0.747c0.324,0.187,0.63,0.369,0.946,0.549l0.006,0.005c0.034,0.485,0.075,0.976,0.123,1.471
			c0.132,1.604,0.294,3.21,0.483,4.819c0.332,2.64,0.71,5.282,1.178,7.893c0.037,0.213,0.084,0.424,0.121,0.637
			c0.13,0.677,0.266,1.358,0.417,2.033C78.705,177.081,78.828,177.606,78.971,178.122z"/>
		<path fill="#FEB447" d="M84.779,173.44c-0.919,0.741-1.89,1.521-2.892,2.326c-0.953,0.267-1.914,0.486-2.873,0.697
			c-0.136,0.029-0.283,0.059-0.425,0.084c-0.588,0.122-1.188,0.233-1.778,0.333c-1.963,0.333-3.942,0.551-5.921,0.709
			c-2.632,0.174-5.265,0.214-7.911,0.024c-0.1-0.002-0.201-0.014-0.308-0.021c-0.564-0.042-1.129-0.093-1.691-0.164
			c-0.803-0.096-1.609-0.227-2.415-0.396l-1.015-0.232c-0.336-0.097-0.68-0.198-1.006-0.307c-0.673-0.181-1.327-0.53-1.955-0.827
			c-0.21-0.103-0.294-0.345-0.195-0.549c0.088-0.18,0.285-0.271,0.462-0.227l0.062,0.011c1.783,0.422,3.633,0.554,5.502,0.591
			c0.712,0.021,1.43,0.027,2.136,0.033c0.065-0.006,0.133-0.002,0.194-0.002c2.652-0.026,5.311-0.148,7.972-0.318
			c1.804-0.119,3.61-0.278,5.415-0.468c0.683-0.064,1.357-0.145,2.033-0.225c0.165-0.015,0.336-0.036,0.505-0.058
			C80.728,174.187,82.786,173.911,84.779,173.44z"/>
		<path fill="#FEB447" d="M78.203,160.791c-0.205,0.053-0.428,0.101-0.641,0.149c-0.391,0.081-0.779,0.155-1.171,0.226
			c-0.742,0.147-1.492,0.267-2.243,0.377c-1.566,0.225-3.139,0.393-4.711,0.513c-2.731,0.184-5.475,0.224-8.211,0.007
			c-0.14-0.014-0.28-0.018-0.42-0.032c-0.745-0.069-1.491-0.149-2.235-0.268c-0.488-0.07-0.975-0.159-1.457-0.264l-1.01-0.227
			c-0.342-0.091-0.679-0.198-1.017-0.305c-0.666-0.177-1.315-0.532-1.949-0.834c-0.204-0.097-0.294-0.343-0.196-0.548
			c0.083-0.173,0.279-0.264,0.469-0.222l0.056,0.018c1.651,0.384,3.37,0.529,5.108,0.577c0.69,0.024,1.378,0.027,2.073,0.035
			c0.216-0.005,0.434,0.003,0.65,0c2.651-0.026,5.317-0.143,7.967-0.313c1.617-0.112,3.23-0.247,4.831-0.413
			c0.412-0.033,0.814-0.078,1.22-0.125c0.324,0.187,0.63,0.369,0.946,0.549l0.006,0.005
			C76.919,160.072,77.564,160.434,78.203,160.791z"/>
	</g>
</g>
<g>
	<path fill="#273351" d="M28.899,182.926c-12.272-10.172-19.781-21.889-17.466-27.251c0.027-0.062,0.072-0.168,21.132-39.49
		c0.216-0.406,0.65-0.646,1.108-0.618c0.458,0.031,0.857,0.325,1.021,0.754c3.061,8.028,12.608,19.351,24.914,29.551
		c12.307,10.199,25.207,17.48,33.663,18.997c0.452,0.081,0.815,0.419,0.93,0.864c0.112,0.444-0.042,0.915-0.401,1.202
		c-8.112,6.536-34.52,27.812-34.817,28.047l0,0C54.49,198.48,41.275,193.183,28.899,182.926z M33.489,119.427
		c-4.354,8.13-19.653,36.7-19.933,37.243c-1.381,3.203,3.678,13.54,16.84,24.449c12.769,10.583,24.409,14.131,27.141,12.019
		c0.449-0.359,25.717-20.715,32.905-26.508c-8.737-2.364-20.83-9.421-32.329-18.951C46.613,138.147,37.434,127.575,33.489,119.427z"
		/>
</g>
<g>
	<path fill="#273351" d="M147.92,24.979c0.862,1.179,1.592,2.385,2.329,3.543c0.732,1.163,1.486,2.278,2.33,3.329
		c1.667,2.109,3.728,3.904,5.982,5.456l0.005,0.003c0.229,0.157,0.286,0.469,0.129,0.697c-0.149,0.218-0.441,0.279-0.665,0.15
		c-1.217-0.709-2.407-1.476-3.539-2.338c-1.128-0.866-2.193-1.829-3.175-2.869c-0.984-1.041-1.88-2.162-2.72-3.283
		c-0.844-1.12-1.647-2.227-2.512-3.225c-0.424-0.489-0.372-1.23,0.118-1.656c0.488-0.424,1.23-0.373,1.655,0.117
		C147.88,24.927,147.902,24.954,147.92,24.979z"/>
</g>
<g>
	<path fill="#273351" d="M94.759,103.462C80.043,91.264,67.861,77.516,62.175,66.69c-2.312-4.392-3.505-8.17-3.545-11.228
		c-0.002-0.605,0.03-1.12,0.097-1.584c0.005-0.034,0.011-0.067,0.019-0.099c0.003-0.021,0.013-0.073,0.018-0.095l0.025-0.111
		c0.06-0.265,0.171-0.758,0.354-1.418c0.002-0.008,0.004-0.018,0.008-0.027c0.005-0.025,0.014-0.05,0.023-0.076
		c0.059-0.23,0.126-0.47,0.208-0.728c1.618-5.418,8.389-22.886,27.348-19.371c0.635,0.118,1.057,0.73,0.938,1.367
		c-0.117,0.637-0.729,1.057-1.366,0.94c-16.571-3.073-22.779,11.392-24.677,17.752c-0.081,0.251-0.14,0.466-0.189,0.672
		c-0.012,0.043-0.024,0.086-0.039,0.127c-0.164,0.594-0.263,1.038-0.317,1.278l-0.028,0.124c-0.002,0.01-0.004,0.022-0.006,0.034
		c-0.046,0.343-0.069,0.735-0.068,1.197c0.035,2.635,1.168,6.151,3.276,10.155c5.551,10.568,17.515,24.048,32.005,36.057
		c14.491,12.01,29.958,21.265,41.37,24.758c4.327,1.328,7.992,1.789,10.6,1.333c0.44-0.082,0.819-0.177,1.146-0.287
		c0.027-0.01,0.062-0.024,0.107-0.041c0.138-0.059,0.534-0.227,1.107-0.496c0.028-0.016,0.057-0.031,0.087-0.044
		c0.232-0.106,0.49-0.229,0.771-0.372c6.88-3.441,22.104-13.151,14.992-28.99c-0.265-0.592-0.001-1.286,0.59-1.552
		c0.592-0.265,1.285,0.001,1.55,0.589c8.167,18.189-10.242,29.128-16.079,32.048c-0.279,0.143-0.54,0.267-0.777,0.377
		c-0.021,0.013-0.044,0.024-0.065,0.034c-0.656,0.31-1.111,0.502-1.305,0.583l-0.549-1.044l0.46,1.079
		c-0.027,0.011-0.064,0.026-0.093,0.036c-0.442,0.152-0.94,0.279-1.524,0.387c-3.026,0.531-6.96,0.059-11.705-1.397
		C125.246,125.078,109.476,115.66,94.759,103.462z M151.153,127.952l0.007,0.005L151.153,127.952z"/>
</g>
<g>
	<path fill="#273351" d="M103.771,69.349c2.46,2.086,4.89,4.177,7.358,6.216c2.472,2.038,4.957,4.052,7.484,6.011
		c2.522,1.964,5.079,3.881,7.667,5.76c2.591,1.875,5.22,3.699,7.87,5.539c0.189,0.13,0.237,0.389,0.106,0.577
		c-0.113,0.166-0.327,0.222-0.504,0.147c-3-1.268-5.866-2.825-8.627-4.542c-1.386-0.853-2.731-1.767-4.07-2.689
		c-1.319-0.949-2.633-1.907-3.91-2.912c-2.551-2.012-5.026-4.119-7.371-6.367c-2.35-2.241-4.593-4.599-6.631-7.131
		c-0.151-0.189-0.122-0.465,0.068-0.618C103.377,69.207,103.613,69.215,103.771,69.349z"/>
</g>
<g>
	<path fill="#273351" d="M26.937,145.792c-0.285,2.596-0.147,5.268,0.004,7.918c0.181,2.655,0.418,5.311,0.737,7.957
		c0.324,2.645,0.702,5.281,1.171,7.891c0.5,2.596,1.005,5.217,2.057,7.583l0.025,0.056c0.092,0.208,0,0.449-0.208,0.543
		c-0.181,0.079-0.388,0.02-0.5-0.133c-0.412-0.563-0.879-1.14-1.177-1.766c-0.169-0.307-0.334-0.621-0.491-0.935l-0.413-0.958
		c-0.535-1.285-0.961-2.6-1.315-3.928c-0.721-2.656-1.195-5.358-1.52-8.074c-0.298-2.718-0.465-5.452-0.405-8.192
		c0.078-2.734,0.257-5.515,1.19-8.19c0.08-0.228,0.329-0.348,0.558-0.269c0.195,0.068,0.312,0.262,0.291,0.46L26.937,145.792z"/>
	<path fill="#273351" d="M37.64,169.463c-2.457,1.407-5.157,2.104-7.822,2.687c-0.148,0.03-0.295,0.061-0.431,0.091
		c-0.594,0.116-1.184,0.227-1.774,0.327c-1.968,0.328-3.941,0.551-5.926,0.705c-0.353,0.021-0.707,0.043-1.071,0.065
		c-0.683-0.769-1.326-1.535-1.929-2.289c0.94-0.044,1.889-0.1,2.833-0.161c1.811-0.114,3.622-0.279,5.426-0.469
		c0.677-0.069,1.347-0.143,2.022-0.223c0.17-0.022,0.335-0.037,0.504-0.059c2.64-0.342,5.288-0.706,7.788-1.467l0.038-0.009
		c0.231-0.073,0.472,0.055,0.543,0.287C37.899,169.15,37.814,169.363,37.64,169.463z"/>
	<path fill="#273351" d="M36.187,153.928c-2.456,1.419-5.156,2.105-7.829,2.694c-0.392,0.082-0.779,0.156-1.172,0.226
		c-0.743,0.147-1.492,0.268-2.242,0.377c-1.561,0.229-3.139,0.393-4.711,0.513c-2.67,0.184-5.354,0.224-8.044,0.015
		c0.015-0.607,0.119-1.15,0.321-1.612c0.004-0.007,0.094-0.176,0.254-0.48c2.43-0.027,4.873-0.145,7.308-0.3
		c1.611-0.107,3.22-0.246,4.82-0.414c0.71-0.061,1.414-0.137,2.124-0.22c0.335-0.037,0.67-0.074,1.009-0.117
		c2.634-0.347,5.281-0.711,7.776-1.466l0.039-0.009c0.231-0.072,0.477,0.061,0.543,0.288
		C36.451,153.621,36.359,153.829,36.187,153.928z"/>
</g>
<g>
	<path fill="#273351" d="M60.542,150.875c-0.284,2.597-0.147,5.267,0.004,7.919c0.181,2.655,0.418,5.31,0.737,7.956
		c0.323,2.644,0.701,5.281,1.17,7.891c0.501,2.596,1.006,5.217,2.06,7.582l0.024,0.056c0.093,0.208-0.001,0.451-0.208,0.543
		c-0.179,0.081-0.387,0.02-0.5-0.132c-0.413-0.563-0.879-1.141-1.177-1.767c-0.169-0.307-0.334-0.621-0.49-0.935l-0.414-0.957
		c-0.536-1.286-0.96-2.601-1.315-3.93c-0.719-2.656-1.194-5.359-1.518-8.073c-0.299-2.718-0.466-5.451-0.406-8.194
		c0.078-2.732,0.256-5.514,1.19-8.189c0.08-0.228,0.331-0.349,0.557-0.269c0.197,0.068,0.313,0.262,0.292,0.461L60.542,150.875z"/>
	<path fill="#273351" d="M78.906,177.434c-0.414,0.326-0.837,0.667-1.256,1l-0.369-0.854c-0.187-0.46-0.37-0.925-0.535-1.389
		c-0.25-0.714-0.471-1.427-0.673-2.142c-0.039-0.135-0.069-0.271-0.109-0.405c-0.719-2.649-1.196-5.358-1.517-8.072
		c-0.175-1.565-0.299-3.142-0.363-4.718c-0.039-0.764-0.06-1.522-0.053-2.277c-0.011-0.294-0.004-0.583,0.001-0.873
		c0.407,0.255,0.813,0.502,1.219,0.747c0.324,0.187,0.628,0.369,0.945,0.55l0.007,0.005c0.034,0.486,0.074,0.977,0.121,1.471
		c0.134,1.603,0.294,3.209,0.484,4.819c0.33,2.64,0.71,5.282,1.177,7.892c0.037,0.213,0.084,0.426,0.122,0.639
		c0.129,0.677,0.265,1.357,0.417,2.031C78.642,176.392,78.763,176.919,78.906,177.434z"/>
	<path fill="#273351" d="M84.715,172.753c-0.919,0.741-1.89,1.52-2.892,2.325c-0.953,0.267-1.916,0.484-2.873,0.696
		c-0.135,0.03-0.283,0.06-0.426,0.083c-0.587,0.123-1.188,0.234-1.779,0.333c-1.961,0.334-3.941,0.553-5.92,0.71
		c-2.632,0.173-5.265,0.215-7.91,0.023c-0.1-0.001-0.201-0.014-0.307-0.021c-0.565-0.042-1.131-0.094-1.692-0.165
		c-0.804-0.097-1.611-0.226-2.414-0.396l-1.016-0.231c-0.336-0.097-0.68-0.198-1.006-0.306c-0.672-0.182-1.327-0.531-1.954-0.828
		c-0.21-0.103-0.293-0.345-0.196-0.547c0.088-0.181,0.285-0.271,0.462-0.228l0.061,0.011c1.784,0.421,3.634,0.554,5.504,0.589
		c0.712,0.022,1.43,0.027,2.134,0.033c0.066-0.005,0.134,0,0.195-0.001c2.652-0.025,5.312-0.146,7.972-0.318
		c1.805-0.12,3.612-0.277,5.414-0.468c0.684-0.063,1.359-0.144,2.035-0.223c0.165-0.016,0.335-0.037,0.505-0.06
		C80.664,173.499,82.721,173.222,84.715,172.753z"/>
	<path fill="#273351" d="M78.139,160.101c-0.206,0.054-0.43,0.103-0.641,0.15c-0.393,0.082-0.78,0.157-1.173,0.227
		c-0.742,0.146-1.491,0.267-2.241,0.376c-1.568,0.225-3.14,0.394-4.712,0.513c-2.73,0.184-5.477,0.225-8.212,0.009
		c-0.14-0.015-0.278-0.018-0.418-0.034c-0.746-0.069-1.491-0.148-2.235-0.268c-0.49-0.07-0.976-0.157-1.458-0.262l-1.009-0.229
		c-0.342-0.089-0.68-0.196-1.017-0.304c-0.667-0.176-1.316-0.532-1.95-0.833c-0.204-0.099-0.294-0.345-0.196-0.549
		c0.083-0.176,0.281-0.265,0.468-0.222l0.056,0.017c1.653,0.385,3.371,0.529,5.108,0.577c0.691,0.026,1.379,0.027,2.075,0.033
		c0.215-0.002,0.434,0.005,0.649,0c2.651-0.026,5.317-0.142,7.966-0.312c1.618-0.114,3.232-0.248,4.833-0.413
		c0.414-0.035,0.814-0.077,1.221-0.126c0.324,0.187,0.628,0.369,0.945,0.55l0.007,0.005
		C76.855,159.385,77.499,159.746,78.139,160.101z"/>
</g>
<path opacity="0.4" fill="#FEF4F3" d="M110.754,28.223c-1.854,1.604-3.614,2.852-5.236,4.063c-1.618,1.204-3.105,2.335-4.34,3.452
	c-1.26,1.131-2.163,2.176-3.21,3.275c-0.535,0.56-1.049,1.201-1.646,1.985c-0.622,0.783-1.155,1.726-1.975,2.88l-0.029,0.042
	c-0.213,0.301-0.63,0.372-0.931,0.159c-0.027-0.019-0.056-0.043-0.078-0.064c-2.062-1.987-2.681-5.039-1.982-7.906
	c0.359-1.421,1.028-2.765,1.896-3.902c0.872-1.138,1.927-2.06,3.017-2.841c2.199-1.558,4.629-2.42,7.051-2.8
	c1.214-0.187,2.436-0.246,3.657-0.155c1.223,0.09,2.433,0.298,3.659,0.775c0.308,0.12,0.46,0.468,0.341,0.776
	c-0.037,0.092-0.094,0.172-0.165,0.233L110.754,28.223z"/>
<path opacity="0.4" fill="#FEF4F3" d="M79.227,39.681c-0.877,1.799-1.865,3.329-2.766,4.797c-0.905,1.467-1.774,2.836-2.516,4.209
	c-0.725,1.381-1.302,2.75-1.682,4.234c-0.401,1.491-0.535,3.11-0.564,5.065l0,0.046c-0.006,0.466-0.389,0.836-0.854,0.829
	c-0.224-0.003-0.426-0.095-0.574-0.238c-1.53-1.488-2.505-3.635-2.705-5.912c-0.232-2.284,0.312-4.592,1.25-6.578
	c0.948-1.993,2.3-3.699,3.911-5.029c0.799-0.669,1.677-1.235,2.605-1.705c0.938-0.465,1.899-0.837,3.019-1.015
	c0.47-0.075,0.911,0.245,0.985,0.714c0.029,0.183-0.001,0.36-0.077,0.512L79.227,39.681z"/>
<path opacity="0.4" fill="#FEF4F3" d="M130.827,24.31c-0.231,1.471-0.588,2.629-0.838,3.697c-0.281,1.056-0.529,1.99-0.748,2.94
	c-0.193,0.953-0.406,1.929-0.481,3.043c-0.097,0.557-0.063,1.139-0.147,1.773c-0.044,0.634-0.033,1.287-0.155,2.046l-0.018,0.116
	c-0.078,0.483-0.531,0.81-1.01,0.733c-0.137-0.022-0.265-0.077-0.37-0.151c-0.322-0.228-0.614-0.483-0.895-0.755
	c-0.28-0.273-0.579-0.543-0.792-0.866c-0.425-0.644-0.903-1.301-1.147-2.067c-0.643-1.482-0.771-3.207-0.549-4.858
	c0.213-1.663,0.921-3.251,1.981-4.48c0.273-0.303,0.562-0.586,0.861-0.855c0.321-0.251,0.633-0.502,0.986-0.705
	c0.701-0.419,1.44-0.721,2.356-0.841c0.49-0.064,0.938,0.281,1.001,0.768c0.012,0.085,0.01,0.17-0.002,0.251L130.827,24.31z"/>
<path opacity="0.4" fill="#FFFFFF" d="M84.585,82.893c0.344,0.969,0.7,2.01,1.118,2.946c0.411,0.953,0.851,1.874,1.338,2.773
	c0.516,0.887,1.019,1.782,1.586,2.674c0.13,0.231,0.268,0.46,0.418,0.682l0.419,0.704c0.279,0.478,0.592,0.935,0.838,1.491
	l0.037,0.082c0.183,0.417-0.005,0.903-0.422,1.086c-0.21,0.094-0.443,0.091-0.642,0.011c-1.166-0.472-2.206-1.188-3.097-2.067
	c-0.913-0.86-1.629-1.922-2.225-3.039c-0.569-1.134-0.98-2.357-1.168-3.619c-0.168-1.275-0.186-2.524,0.238-3.849
	c0.135-0.418,0.582-0.649,0.999-0.515c0.244,0.078,0.425,0.262,0.505,0.486L84.585,82.893z"/>
<path opacity="0.4" fill="#FFFFFF" d="M134.925,117.831c-2.307,0.556-4.511,0.328-6.653-0.145c-2.14-0.484-4.158-1.359-6.063-2.405
	c-1.888-1.075-3.704-2.284-5.303-3.749c-1.625-1.423-3.053-3.072-4.233-4.89c-0.243-0.375-0.136-0.874,0.238-1.118
	c0.233-0.152,0.517-0.167,0.755-0.066l0.057,0.024c0.983,0.425,1.873,0.93,2.775,1.401c0.929,0.438,1.777,0.961,2.68,1.396
	c1.747,0.953,3.524,1.796,5.269,2.667c1.76,0.851,3.544,1.602,5.299,2.478c1.755,0.865,3.549,1.75,5.333,2.849l0.085,0.053
	c0.389,0.238,0.508,0.745,0.271,1.134C135.316,117.655,135.128,117.782,134.925,117.831z"/>
<path fill="#FEF4F3" d="M135.805,74.845L135.805,74.845c-0.677,0.291-1.463-0.022-1.755-0.701l-2.653-6.164
	c-0.292-0.678,0.022-1.463,0.701-1.754l0,0c0.676-0.292,1.462,0.021,1.754,0.699l2.652,6.164
	C136.795,73.767,136.484,74.553,135.805,74.845z"/>
<path fill="#FEF4F3" d="M143.321,117.606L143.321,117.606c-0.678,0.292-1.463-0.021-1.756-0.698l-2.651-6.165
	c-0.292-0.678,0.021-1.463,0.698-1.755l0,0c0.678-0.291,1.464,0.021,1.755,0.7l2.652,6.164
	C144.312,116.529,144,117.314,143.321,117.606z"/>
<path fill="#FEF4F3" d="M109.927,44.594L109.927,44.594c-0.219,0.704-0.97,1.096-1.672,0.876l-6.406-2.001
	c-0.705-0.22-1.098-0.968-0.877-1.673l0,0c0.22-0.705,0.969-1.097,1.673-0.876l6.404,2C109.755,43.14,110.148,43.89,109.927,44.594z
	"/>
<path fill="#FEF4F3" d="M128.335,105.019L128.335,105.019c-0.736,0.042-1.368-0.521-1.409-1.257l-0.384-6.701
	c-0.042-0.736,0.521-1.367,1.258-1.409l0,0c0.736-0.042,1.368,0.52,1.41,1.257l0.383,6.7
	C129.634,104.345,129.071,104.977,128.335,105.019z"/>
<path fill="#FEF4F3" d="M102.041,84.525L102.041,84.525c-0.576,0.462-1.416,0.368-1.877-0.208l-4.194-5.239
	c-0.46-0.576-0.368-1.417,0.208-1.878l0,0c0.577-0.46,1.417-0.367,1.879,0.209l4.193,5.239
	C102.71,83.223,102.616,84.064,102.041,84.525z"/>
<path fill="#FEF4F3" d="M149.395,49.582L149.395,49.582c0.304-0.672,1.095-0.972,1.768-0.668l6.116,2.764
	c0.671,0.304,0.971,1.095,0.667,1.768l0,0c-0.304,0.672-1.095,0.972-1.767,0.667l-6.115-2.764
	C149.391,51.045,149.091,50.253,149.395,49.582z"/>
<path fill="#FEF4F3" d="M145.233,84.164L145.233,84.164c0.022-0.738,0.638-1.318,1.376-1.296l6.708,0.199
	c0.736,0.021,1.317,0.636,1.294,1.374l0,0c-0.022,0.738-0.637,1.317-1.374,1.295l-6.708-0.199
	C145.793,85.516,145.211,84.901,145.233,84.164z"/>
<path fill="#FEF4F3" d="M109.509,62.394L109.509,62.394c0.497-0.545,1.341-0.584,1.887-0.087l4.958,4.521
	c0.546,0.498,0.583,1.343,0.086,1.889l0,0c-0.496,0.544-1.341,0.583-1.886,0.085l-4.959-4.521
	C109.051,63.784,109.013,62.938,109.509,62.394z"/>
<path fill="#FEF4F3" d="M102.398,99.396L102.398,99.396c0.021-0.737,0.637-1.317,1.375-1.295l6.708,0.198
	c0.736,0.021,1.318,0.636,1.295,1.374l0,0c-0.021,0.737-0.637,1.318-1.374,1.296l-6.709-0.198
	C102.957,100.749,102.377,100.134,102.398,99.396z"/>
<path fill="#FEF4F3" d="M73.418,59.21L73.418,59.21c0.22-0.704,0.97-1.096,1.673-0.877l6.407,2.001
	c0.704,0.221,1.096,0.969,0.876,1.673l0,0c-0.22,0.704-0.969,1.097-1.673,0.877l-6.406-2.002
	C73.591,60.664,73.199,59.915,73.418,59.21z"/>
<path fill="#FEF4F3" d="M139.795,33.383L139.795,33.383c0.727,0.124,1.216,0.812,1.093,1.54l-1.125,6.616
	c-0.124,0.727-0.813,1.216-1.541,1.093l0,0c-0.728-0.124-1.217-0.813-1.093-1.542l1.125-6.616
	C138.377,33.749,139.067,33.259,139.795,33.383z"/>
</svg>
