<?xml version="1.0" encoding="utf-8"?>
<!-- Generator: Adobe Illustrator 16.0.4, SVG Export Plug-In . SVG Version: 6.00 Build 0)  -->
<!DOCTYPE svg PUBLIC "-//W3C//DTD SVG 1.1//EN" "http://www.w3.org/Graphics/SVG/1.1/DTD/svg11.dtd">
<svg version="1.1" id="Layer_1" xmlns="http://www.w3.org/2000/svg" xmlns:xlink="http://www.w3.org/1999/xlink" x="0px" y="0px"
	 width="200px" height="200px" viewBox="0 0 200 200" enable-background="new 0 0 200 200" xml:space="preserve">
<circle fill="#E2348B" cx="100" cy="100" r="99"/>
<path fill="#FF6CA8" d="M40.4,88.956c0.327,0.708,0.582,1.184,0.677,1.37C40.792,89.875,40.568,89.423,40.4,88.956z"/>
<g>
	<path fill="#FEF4F3" d="M99.82,105.744c-14.752,0-33.972-4.592-42.812-8.85c-7.409-3.569-6.575-24.068,7.758-24.743
		c-4.395-9.248,0-20.484,12.694-20.317c-1.822-9.855,2.973-16.167,10.994-16.098C86.1,32.417,86.138,27.32,87.1,24.25
		c0.994-3.169,2.548-7.197,3.417-7.25s1.799,1.416,2.568,1.924c8.932,5.909,11.659,3.256,19.265,8.826
		c6.877,5.037,8.084,9.921,8.5,16.138c13.625,1.112,16.844,16.449,14.625,21.487c7.458,0.718,19.458,19.754,6.095,31.471
		C128.483,104.945,99.82,105.744,99.82,105.744z"/>
	<path fill="#FBE290" d="M54.822,99c2.997,10.952,10.385,34.747,11.279,37.753c1.273,4.279,2.333,6.978,7.249,7.937
		c0.75,6.75,3.417,25.947,4.111,29.832c0.352,2.586,1.043,4.099,2.653,5.515c3.639,3.203,19.986,3.956,19.986,3.956
		s16.208-0.742,19.847-3.945c1.609-1.417,2.232-2.912,2.583-5.498c0.693-3.885,3.326-23.051,4.076-29.801
		c4.917-0.959,6.028-3.717,7.301-7.997c0.895-3.006,9.026-26.8,11.332-37.752c-10.485,4.566-18.139,9.5-45.139,9.5
		C82.1,108.5,66.767,105.744,54.822,99z"/>
</g>
</svg>
